<svg xmlns="http://www.w3.org/2000/svg" width="400" height="400">
  <g fill="white">
    <path d="M252.5 94 L255.75 100.75 L263 101.5 L257.5 105.75 L259 113 L252.5 109.5 L246 113 L247.5 105.75 L242 101.5 L249.25 100.75 Z" />
    <path d="M322.5 131 L325.75 137.75 L333 138.5 L327.5 142.75 L329 150 L322.5 146.5 L316 150 L317.5 142.75 L312 138.5 L319.25 137.75 Z" />
    <path d="M332.5 52 L335.75 58.75 L343 59.5 L337.5 63.75 L339 71 L332.5 67.5 L326 71 L327.5 63.75 L322 59.5 L329.25 58.75 Z" />
    <path d="M362.5 97 L365.75 103.75 L373 104.5 L367.5 108.75 L369 116 L362.5 112.5 L356 116 L357.5 108.75 L352 104.5 L359.25 103.75 Z" />
    <path d="M17.5 272 L20.75 278.75 L28 279.5 L22.5 283.75 L24 291 L17.5 287.5 L11 291 L12.5 283.75 L7 279.5 L14.25 278.75 Z" />
    <path d="M92.5 325 L95.75 331.75 L103 332.5 L97.5 336.75 L99 344 L92.5 340.5 L86 344 L87.5 336.75 L82 332.5 L89.25 331.75 Z" />
    <path d="M142.5 277 L145.75 283.75 L153 284.5 L147.5 288.75 L149 296 L142.5 292.5 L136 296 L137.5 288.75 L132 284.5 L139.25 283.75 Z" />
    <path d="M197.5 338 L200.75 344.75 L208 345.5 L202.5 349.75 L204 357 L197.5 353.5 L191 357 L192.5 349.75 L187 345.5 L194.25 344.75 Z" />
    </g>
</svg>