<svg xmlns="http://www.w3.org/2000/svg" width="400" height="400">
  <g fill="white">
    <path d="M17.5 72 L20.75 78.75 L28 79.5 L22.5 83.75 L24 91 L17.5 87.5 L11 91 L12.5 83.75 L7 79.5 L14.25 78.75 Z" />
    <path d="M92.5 125 L95.75 131.75 L103 132.5 L97.5 136.75 L99 144 L92.5 140.5 L86 144 L87.5 136.75 L82 132.5 L89.25 131.75 Z" />
    <path d="M142.5 77 L145.75 83.75 L153 84.5 L147.5 88.75 L149 96 L142.5 92.5 L136 96 L137.5 88.75 L132 84.5 L139.25 83.75 Z" />
    <path d="M197.5 138 L200.75 144.75 L208 145.5 L202.5 149.75 L204 157 L197.5 153.5 L191 157 L192.5 149.75 L187 145.5 L194.25 144.75 Z" />
    <path d="M202.5 47 L205.75 53.75 L213 54.5 L207.5 58.75 L209 66 L202.5 62.5 L196 66 L197.5 58.75 L192 54.5 L199.25 53.75 Z" />
   </g>
</svg>