<svg xmlns="http://www.w3.org/2000/svg" width="400" height="400">
  <g fill="white">
    <path d="M197.5 338 L200.75 344.75 L208 345.5 L202.5 349.75 L204 357 L197.5 353.5 L191 357 L192.5 349.75 L187 345.5 L194.25 344.75 Z" />
    <path d="M202.5 247 L205.75 253.75 L213 254.5 L207.5 258.75 L209 266 L202.5 262.5 L196 266 L197.5 258.75 L192 254.5 L199.25 253.75 Z" />
    <path d="M252.5 294 L255.75 300.75 L263 301.5 L257.5 305.75 L259 313 L252.5 309.5 L246 313 L247.5 305.75 L242 301.5 L249.25 300.75 Z" />
    <path d="M322.5 331 L325.75 337.75 L333 338.5 L327.5 342.75 L329 350 L322.5 346.5 L316 350 L317.5 342.75 L312 338.5 L319.25 337.75 Z" />
    <path d="M332.5 252 L335.75 258.75 L343 259.5 L337.5 263.75 L339 271 L332.5 267.5 L326 271 L327.5 263.75 L322 259.5 L329.25 258.75 Z" />
    <path d="M362.5 297 L365.75 303.75 L373 304.5 L367.5 308.75 L369 316 L362.5 312.5 L356 316 L357.5 308.75 L352 304.5 L359.25 303.75 Z" />
  </g>
</svg>